<svg width="241" height="90" viewBox="0 0 241 90" fill="none" xmlns="http://www.w3.org/2000/svg">
<path d="M39.5 1H31L29 2.5L30.5 8H25L23 10L23.5 11L25.5 11.5L27 12.5L29 14.5L30 16.5L31.5 24V33.5L31 37L30 40V44L22 48L25 61L13.5 69L20 71.5L21.5 75.5L28.5 76.5L47 43.5L41.5 42.5L39.5 40L38.5 37L38 33.5V24L39.5 16.5L41 14.5L42 12.5L44 11.5L46 11L47.5 10L46.5 8.5L44 8H39.5L41 2.5L39.5 1Z" fill="#FFA500"/>
<path d="M65.5 45L68 39V33.5L66.5 30L63.5 27.5L59.5 25L56 24H51L48 25L44.5 27.5V34L46 35.5L48 33L50.5 32L53.5 32.5L54.5 35L55 39L52.5 41L50.5 42L32 79L39 77.5H45L48 72L53.5 70L54.5 64.5L60.5 63.5V57L64.5 54.5L65.5 45Z" fill="#CAE00D"/>
<path d="M25 35L23 36L21 34L19 33H17L15.5 35L15 37L16 41L18 43L20 43.5H25.5L19 47L21.5 60L15.5 64.5H12L8.5 62L8 56.5L3.5 52.5L4.5 45.5L1.5 42.5L2 39L1 34.5L4.5 29L11 23.5H18L24 26L26 32L25 35Z" fill="#383C43"/>
<path d="M87.008 63.616C84.432 63.616 82.2293 62.9067 80.4 61.488C78.5707 60.0693 77.1707 58.128 76.2 55.664C75.2667 53.2 74.8 50.4 74.8 47.264C74.8 43.7547 75.6213 40.432 77.264 37.296C78.9067 34.1227 81.0533 31.584 83.704 29.68C86.392 27.7387 89.1733 26.768 92.048 26.768C94.4747 26.768 96.3413 27.3093 97.648 28.392C98.9547 29.4747 99.608 30.744 99.608 32.2C99.608 33.0587 99.3467 33.8427 98.824 34.552C98.3387 35.2613 97.6293 35.8027 96.696 36.176C96.584 35.952 96.528 35.5973 96.528 35.112C96.528 34.664 96.584 34.216 96.696 33.768C96.7707 33.1707 96.808 32.7413 96.808 32.48C96.808 32.1067 96.752 31.7893 96.64 31.528C96.1173 30.2213 94.6987 29.568 92.384 29.568C91.7493 29.568 91.0027 29.624 90.144 29.736C88.1653 29.9973 86.2053 30.9867 84.264 32.704C82.3227 34.384 80.736 36.4933 79.504 39.032C78.272 41.5707 77.656 44.1653 77.656 46.816C77.656 49.1307 78.0293 51.3333 78.776 53.424C79.56 55.4773 80.68 57.1387 82.136 58.408C83.592 59.6773 85.328 60.312 87.344 60.312C89.9573 60.312 92.1227 59.9947 93.84 59.36C95.5947 58.7253 97.312 57.7547 98.992 56.448C99.1787 56.2987 99.384 56.224 99.608 56.224C100.019 56.224 100.299 56.4667 100.448 56.952C100.635 57.848 100.037 58.8187 98.656 59.864C97.2747 60.9093 95.4827 61.8053 93.28 62.552C91.0773 63.2613 88.9867 63.616 87.008 63.616Z" fill="#0650BE"/>
<path d="M108.054 62.608C107.233 58.5387 106.598 53.7227 106.15 48.16C105.74 42.56 105.534 37.1467 105.534 31.92C105.534 29.3067 105.59 26.992 105.702 24.976C105.702 24.4907 106.076 24.248 106.822 24.248C107.42 24.248 107.793 24.3973 107.942 24.696C108.129 24.9947 108.222 25.4613 108.222 26.096C108.222 32.144 108.334 37.3147 108.558 41.608C108.782 45.864 109.081 50.456 109.454 55.384C109.678 58.5573 109.828 60.704 109.902 61.824C109.94 62.4213 109.622 62.72 108.95 62.72C108.726 62.72 108.428 62.6827 108.054 62.608Z" fill="#9F0000"/>
<path d="M125.973 63.056C123.77 63.056 121.773 62.5707 119.981 61.6C118.226 60.592 116.845 59.2107 115.837 57.456C114.866 55.664 114.381 53.6293 114.381 51.352C114.381 47.6187 115.743 44.8373 118.469 43.008C121.231 41.1787 124.61 40.264 128.605 40.264C130.434 40.264 132.133 40.712 133.701 41.608C135.306 42.504 136.594 43.792 137.565 45.472C138.535 47.152 139.021 49.0933 139.021 51.296C139.021 53.6853 138.405 55.776 137.173 57.568C135.941 59.3227 134.317 60.6853 132.301 61.656C130.322 62.5893 128.213 63.056 125.973 63.056ZM125.357 59.864C128.829 59.864 131.461 59.08 133.253 57.512C135.045 55.944 135.941 53.648 135.941 50.624C135.941 48.5707 135.231 46.7973 133.813 45.304C132.431 43.8107 130.49 43.064 127.989 43.064C126.309 43.064 124.61 43.3813 122.893 44.016C121.175 44.6507 119.757 45.6027 118.637 46.872C117.517 48.1413 116.957 49.672 116.957 51.464C116.957 52.9573 117.33 54.3573 118.077 55.664C118.823 56.9333 119.831 57.96 121.101 58.744C122.407 59.4907 123.826 59.864 125.357 59.864Z" fill="#FFA500"/>
<path d="M152.49 63C152.117 63.0747 151.874 63.112 151.762 63.112C150.605 63.112 149.802 62.2533 149.354 60.536C148.944 58.8187 148.738 56.4107 148.738 53.312C148.738 52.0427 148.776 50.064 148.85 47.376C148.925 45.7333 148.962 44.5013 148.962 43.68C144.37 43.68 142.074 43.1573 142.074 42.112C142.074 41.776 142.112 41.5147 142.186 41.328C142.298 41.1413 142.522 41.048 142.858 41.048L148.962 40.656C148.925 38.8267 148.832 36.8293 148.682 34.664C148.533 32.7227 148.44 30.9307 148.402 29.288C148.402 28.8773 148.57 28.5973 148.906 28.448C149.242 28.2613 149.597 28.168 149.97 28.168C150.418 28.168 150.792 28.4107 151.09 28.896C151.389 29.344 151.538 29.8107 151.538 30.296L151.93 40.544L156.578 40.768C157.288 40.6933 157.885 40.824 158.37 41.16C158.893 41.496 159.173 42.056 159.21 42.84C158.426 43.176 157.568 43.3813 156.634 43.456C155.701 43.5307 154.133 43.568 151.93 43.568C151.93 47.04 152.098 52.752 152.434 60.704C152.434 61.5253 152.434 62.104 152.434 62.44C152.472 62.7387 152.49 62.9253 152.49 63ZM168.447 62.888C168.26 62.9253 168.055 62.216 167.831 60.76C167.644 59.304 167.383 56.8027 167.047 53.256C166.524 47.432 165.927 42.0933 165.255 37.24C164.62 32.3867 163.818 28.1867 162.847 24.64C162.772 24.3413 162.884 24.08 163.183 23.856C163.482 23.632 163.892 23.52 164.415 23.52C164.676 23.52 164.882 23.5387 165.031 23.576C165.964 26.1147 166.618 28.3547 166.991 30.296C167.402 32.2373 167.775 34.6267 168.111 37.464L168.391 39.648C170.631 38.304 172.684 37.632 174.551 37.632C177.948 37.632 180.356 39.1813 181.775 42.28C183.231 45.3413 183.959 49.7093 183.959 55.384C183.959 57.5493 183.828 59.3787 183.567 60.872C183.306 62.328 182.988 63.056 182.615 63.056C182.13 63.056 181.588 62.7013 180.991 61.992V60.144L181.047 54.04C181.047 52.8827 181.01 51.4453 180.935 49.728C180.823 46.816 180.226 44.6133 179.143 43.12C178.098 41.6267 176.287 40.88 173.711 40.88C171.994 40.88 170.388 41.5147 168.895 42.784C168.895 44.2027 168.951 45.6587 169.063 47.152C169.212 48.6453 169.38 50.1013 169.567 51.52C169.828 53.4987 170.015 55.2533 170.127 56.784C170.276 58.2773 170.351 59.9387 170.351 61.768C170.127 62.216 169.866 62.5147 169.567 62.664C169.306 62.8133 168.932 62.888 168.447 62.888Z" fill="#CAE00D"/>
<path d="M202.081 63C199.692 63 197.489 62.5333 195.473 61.6C193.457 60.6667 191.852 59.3413 190.657 57.624C189.462 55.9067 188.865 53.928 188.865 51.688C188.865 49.1867 189.332 46.8533 190.265 44.688C191.198 42.4853 192.561 40.7307 194.353 39.424C196.182 38.08 198.31 37.408 200.737 37.408C203.276 37.408 205.198 38.2293 206.505 39.872C207.812 41.4773 208.428 43.512 208.353 45.976C208.353 48.1787 207.476 49.8587 205.721 51.016C204.004 52.1733 201.801 52.752 199.113 52.752C198.702 52.752 198.086 52.7147 197.265 52.64C195.921 52.4907 194.969 52.2853 194.409 52.024C193.849 51.7627 193.569 51.24 193.569 50.456C193.569 50.1947 193.644 50.008 193.793 49.896C193.942 49.7467 194.241 49.672 194.689 49.672C195.174 49.672 196.033 49.784 197.265 50.008C198.46 50.232 199.524 50.344 200.457 50.344C203.892 50.344 205.609 48.8507 205.609 45.864C205.609 44.072 205.273 42.6533 204.601 41.608C203.966 40.5627 202.828 40.04 201.185 40.04C199.393 40.04 197.788 40.5253 196.369 41.496C194.95 42.4293 193.849 43.6613 193.065 45.192C192.318 46.7227 191.945 48.3467 191.945 50.064C191.945 53.0133 192.766 55.44 194.409 57.344C196.052 59.2107 198.59 60.144 202.025 60.144C202.436 60.144 203.126 60.1067 204.097 60.032C204.508 59.9947 205.012 59.8827 205.609 59.696C206.206 59.5093 206.636 59.3787 206.897 59.304C208.502 58.744 209.678 58.464 210.425 58.464C210.985 58.464 211.414 58.6133 211.713 58.912C210.78 60.3307 209.38 61.376 207.513 62.048C205.684 62.6827 203.873 63 202.081 63Z" fill="#383C43"/>
<path d="M214.247 56.392C214.769 55.9813 215.273 55.776 215.759 55.776C216.207 55.776 216.636 55.9067 217.047 56.168C217.495 56.4293 217.943 56.7653 218.391 57.176C218.839 57.5493 219.193 57.8293 219.455 58.016C220.313 58.688 221.489 59.2107 222.983 59.584C224.476 59.9573 226.063 60.144 227.743 60.144C229.647 60.144 231.345 59.7893 232.839 59.08C234.369 58.3333 235.135 57.344 235.135 56.112C235.135 54.992 234.724 54.1147 233.903 53.48C233.081 52.808 232.092 52.3227 230.935 52.024C229.777 51.7253 228.247 51.4453 226.343 51.184C223.767 50.8853 221.713 50.512 220.183 50.064C218.689 49.616 217.495 48.888 216.599 47.88C215.703 46.8347 215.255 45.3787 215.255 43.512C215.255 41.496 216.207 40.0027 218.111 39.032C220.015 38.024 222.199 37.52 224.663 37.52C226.903 37.52 228.807 38.0053 230.375 38.976C231.98 39.9093 232.801 41.2533 232.839 43.008C232.913 44.016 232.764 44.8187 232.391 45.416C232.017 45.976 231.569 46.256 231.047 46.256C230.748 46.256 230.487 46.144 230.263 45.92C230.076 45.696 229.983 45.3973 229.983 45.024C229.983 44.4267 230.188 43.7733 230.599 43.064C230.412 42.168 229.796 41.496 228.751 41.048C227.743 40.6 226.529 40.376 225.111 40.376C223.02 40.376 221.359 40.768 220.127 41.552C218.895 42.2987 218.279 43.1947 218.279 44.24C218.279 45.36 218.727 46.2187 219.623 46.816C220.519 47.4133 221.601 47.8427 222.871 48.104C224.177 48.328 226.025 48.552 228.415 48.776C230.393 49.0373 231.999 49.3547 233.231 49.728C234.5 50.1013 235.564 50.8293 236.423 51.912C237.281 52.9573 237.711 54.4693 237.711 56.448C237.711 58.5013 236.759 60.1253 234.855 61.32C232.951 62.4773 230.673 63.056 228.023 63.056C224.625 63.056 221.583 62.4773 218.895 61.32C216.244 60.1627 214.695 58.52 214.247 56.392Z" fill="#9F0000"/>
</svg>
